<svg version="1.2" xmlns="http://www.w3.org/2000/svg" viewBox="0 0 454 379" width="454" height="379">
	<style>
		.s0 { fill: #000000 } 
		.s1 { fill: #1d3658 } 
		.s2 { fill: #fefefe } 
		.s3 { fill: #5f7088 } 
		.s4 { fill: #b57336 } 
		.s5 { fill: #2e4565 } 
		.s6 { fill: #cd8544 } 
		.s7 { fill: #ce8644 } 
		.s8 { fill: #344b69 } 
		.s9 { fill: #cb8646 } 
		.s10 { fill: #3e5370 } 
		.s11 { fill: #304766 } 
		.s12 { fill: #2d4464 } 
		.s13 { fill: #738398 } 
		.s14 { fill: #50637d } 
		.s15 { fill: #384e6c } 
		.s16 { fill: #3a506d } 
		.s17 { fill: #182333 } 
		.s18 { fill: #3c526f } 
		.s19 { fill: #314867 } 
		.s20 { fill: #324967 } 
		.s21 { fill: #304664 } 
		.s22 { fill: #394f6d } 
		.s23 { fill: #425773 } 
		.s24 { fill: #20395a } 
		.s25 { fill: #2f4665 } 
		.s26 { fill: #405571 } 
		.s27 { fill: #3b506e } 
		.s28 { fill: #cd8543 } 
		.s29 { fill: #415672 } 
		.s30 { fill: #283f5f } 
		.s31 { fill: #556881 } 
		.s32 { fill: #51647e } 
		.s33 { fill: #374c6a } 
		.s34 { fill: #324867 } 
		.s35 { fill: #4b5f7a } 
		.s36 { fill: #3c516e } 
		.s37 { fill: #394e6c } 
		.s38 { fill: #161c24 } 
		.s39 { fill: #415673 } 
		.s40 { fill: #546780 } 
		.s41 { fill: #475b77 } 
		.s42 { fill: #354b69 } 
		.s43 { fill: #4d617c } 
		.s44 { fill: #566882 } 
		.s45 { fill: #243b5a } 
		.s46 { fill: #304666 } 
		.s47 { fill: #4c607b } 
		.s48 { fill: #4d607b } 
		.s49 { fill: #304563 } 
		.s50 { fill: #2e4564 } 
		.s51 { fill: #596c84 } 
		.s52 { fill: #2c4463 } 
		.s53 { fill: #2d4463 } 
		.s54 { fill: #374d6b } 
		.s55 { fill: #63748c } 
		.s56 { fill: #435774 } 
		.s57 { fill: #3f5471 } 
		.s58 { fill: #334a68 } 
		.s59 { fill: #334967 } 
		.s60 { fill: #53667f } 
		.s61 { fill: #4f627d } 
		.s62 { fill: #465a76 } 
		.s63 { fill: #445874 } 
		.s64 { fill: #233855 } 
		.s65 { fill: #4f627c } 
		.s66 { fill: #273f5f } 
		.s67 { fill: #3c516f } 
		.s68 { fill: #3d526f } 
		.s69 { fill: #5d6f87 } 
		.s70 { fill: #4e617c } 
		.s71 { fill: #324968 } 
		.s72 { fill: #3d5370 } 
		.s73 { fill: #485d78 } 
		.s74 { fill: #3e5470 } 
		.s75 { fill: #344a69 } 
		.s76 { fill: #5f7189 } 
		.s77 { fill: #1a1f26 } 
		.s78 { fill: #68788f } 
		.s79 { fill: #2e3d51 } 
		.s80 { fill: #566982 } 
		.s81 { fill: #61728a } 
		.s82 { fill: #13253c } 
		.s83 { fill: #314764 } 
		.s84 { fill: #304562 } 
		.s85 { fill: #4f637d } 
		.s86 { fill: #2b4262 } 
		.s87 { fill: #607289 } 
		.s88 { fill: #596b84 } 
		.s89 { fill: #4a5e79 } 
		.s90 { fill: #2c4363 } 
		.s91 { fill: #1c3454 } 
		.s92 { fill: #5b6d85 } 
		.s93 { fill: #273a54 } 
		.s94 { fill: #292d32 } 
		.s95 { fill: #465b76 } 
	</style>
	<path class="s0" d="m132.5 1.5l1.25 0.25 1.5 2.25 3 7 4.25 10.5 3 7.25 4.75 11 2.75 6.75 3.25 7.75 4 9.5 3.5 8.5 3 7 3.25 7.5 3.25 8 3.75 9 3.25 7.5 4.25 10.25 4.5 10.75 3 7.25 3.75 9.5 2.25 5.5 1 0.5 2.5-6.25 3.5-8 3-6.25 3.25-5.75 2.75-4.5 2.5-3.75 2.5-3.5 3-4 3.25-4 2.75-3.25 2.25-2.5 1.75-2 4.75-4.75 2-1.75 3.75-3.5 3.5-2.75 3-2.5 4.75-3.5 5.25-3.5 5-3 6.75-3.75 7-3.5 7.75-3.25 9-3 9.75-2.75 12.5-2.5 6.75-1 9.75-0.75 4.5-0.25h14.25l8.5 0.5 8.75 1 11 2 8.5 2 8.75 2.5 9.25 3.25 6.75 2.75 3.5 1.5 3.75 1.75 9.5 4.75 3 2 1.5 1.25-1.5 4-2.75 6-7.5 17.5-4 9.75-1.25 2.25-0.5 0.25-3.75-2.25-4.25-2.75-5.25-3-5.75-3-7-3.25-4.75-2-9-3-7-1.75-6.5-1.25-9.5-1-5-0.25h-5.25l-6.75 0.25-8.5 0.75-5.75 1-7.5 1.75-5.25 1.5-8 3.25-7.75 3.75-4.75 2.75-5.25 3.5-3.5 2.5-3.5 2.75-3.5 3-2.75 2.25-7.25 7.25-2.25 2.75-2.75 3.5-3.25 4.5-3.5 4.75-2.5 4.25-2.25 3.75-2.5 4.75-1.75 4v1.25l1.5 2 2-0.25 1.25-0.75 1.25-1.25 1-0.5v-0.5h0.5l0.5-1.25 4-6.75 3.5-5.5 3.5-4.25 1.75-2.25 3-3.5 3.5-3.75 4-3.75 2-1.75 2.5-2.25 4-3.25 4-3 2.5-1.75 8.5-5 4-2 4.5-2 4.5-1.75 7.5-2.25 8-2 5.5-1 6.25-0.5h17.5l8 1 8.5 1.75 7.5 2.25 8.5 3.25 7.5 3.75 5.5 3.25 4.25 2.75 4.25 3 4 3 3.75 3.25 2.5 2.5 1.5 1.25 1.75 2 2.75 2.75 2.25 2.75 3 3.75 3.25 4.5 3.25 5 3.25 5.75 4 8 2.5 6.5 2 5.75 2 8.25 1.25 8.75 0.75 5.5 0.25 0.25v28.5l-2.25 8.25-2.25 9.75-1 4-0.25 2.75-0.5 2.25 0.25 0.75-1.75 4.75-2 4.25-2.75 4.5-4 5.75-2.5 3.5-1.75 2.25h-0.75l-1.5 0.5v0.5h-0.5l-0.5 1-1 1.25h-0.5l-0.5 1-2.5 3.5-2 4-1.25 4.5-0.5 4v2.5l0.75 3.5 1.5 4 3 7 4.5 9.75 3.5 7.25 2.75 5.75 0.5 2-1.25 1.25-5 3-9.75 5-10.25 4.5-8.75 3.5-6.25 2.25-4 1.25-8 2-8.75 1.5-8.5 1.25-8 0.75-8.5 0.25h-13.75l-8.5-0.5-11.25-1.25-6-1-8.25-1.75-8.25-2.25-9-3-6.5-2.75-7.5-3.5-6.5-3.5-5.75-3.5-5-3.25-3.75-2.5-4.75-3.5-4-3.25-3.25-2.75-4.25-4-2.75-2.75-1.5-1.25-1.75-2-3-3.25-2.75-3.5-2.75-3.25-3-4-3-4.25-5-8-3.25-6-3.75-7.5-3-7-2.75-7.25-2.75-8.75-2-8.25-2-10-1.25-7-1-3-0.5-1-0.75-0.25-3.25-0.25-103.75-0.25-7 0.25-1.25 2-2.25 5.75-2.25 6-4.25 10.25-2.75 7-4.75 11.5-3.5 8.75-6.25 15.75-3.75 9.25-1.5 2.25-1.25 0.5h-10.5l-25-0.25-2-0.25-0.25-1.5 1.25-3 4.5-10.5 2.75-7 3.75-9 3-7.5 5.75-13.5 3.75-8.75 7-17 4.25-10 3.25-7.75 3.5-8 4.75-11.5 3-7.25 4.5-10.75 3.75-9 3.25-7.5 4.5-11 3.5-8.5 3.25-7.75 3.25-7.5 4.75-11.25 3.5-8.25 2.75-7 1.25-2.75 3.25-7.75 4.5-10.5 6-15 1.75-3.75 7.75-18.5 3.25-7.75 3.25-8 3.25-7.75 2.5-6 3.5-7.75 1.75-4 1-1.5zm-1.5 90.25l-1.5 3-1.5 3.75-3 7-5.25 13.25-3.75 9.25-4 10-2.75 7-4.5 10.75-5.5 14-4 9.75-3.25 7.75-3.25 8.25-1.5 4.25v0.5l14.25 0.25h72l-0.25-1.25-1.75-5.25-3.25-8-3-7.25-4-10.25-5.5-14.25-4-10.25-3.25-8.25-3.25-8-4-10.25-3.5-9.5-4.25-11-2-4.75zm316.25 170.5l0.25 0.5zm-0.25 0.5l0.25 0.75z"/>
	<path class="s1" d="m338.5 105.75h17.5l8 1 8.5 1.75 7.5 2.25 8.5 3.25 7.5 3.75 5.5 3.25 4.25 2.75 4.25 3 4 3 3.75 3.25 2.5 2.5 1.5 1.25 1.75 2 2.75 2.75 2.25 2.75 3 3.75 3.25 4.5 3.25 5 3.25 5.75 4 8 2.5 6.5 2 5.75 2 8.25 1.25 8.75 0.75 5.5 0.25 0.25v28.5l-2.25 8.25-2.25 9.75-1 4-0.25 2.75-0.5 2.25 0.25 0.75-1.75 4.75-2 4.25-2.75 4.5-4 5.75-2.5 3.5-1.75 2.25h-0.75l-1.5 0.5v0.5h-0.5l-0.5 1-1 1.25h-0.5l-0.5 1-2.5 3.5-2 4-1.25 4.5-0.5 4v2.5l0.75 3.5 1.25 3.25-0.25 0.75-1.5-2.5-1-2.25-1.25-0.5-1.75 1-3.25 2.5-4 2.5-4.25 2.5-4.5 2.5-6.5 3-3.75 1.5-7.5 2.5-8.25 2.25-7.25 1.25-9.5 1.25-6.25 0.5h-13l-8.25-0.75-14-2.25-10-2.75-6.25-2.25-5.75-2.5-5.5-2.5-6-3.5-3.75-2.5-4.25-3-3.5-2.75-3.75-3.25-1.75-1.75-2-1.75-1.75-1.75-1.75-2-2.75-3-3-4-3.5-4.75-3-4.75-2.5-4.5-2.5-4.75-3-6.75-2.5-6.75-1.5-4.75-2.25-8.5-1.25-6.25-1.25-9-0.75-8-0.25-6v-6.75l0.5-7.25 1.25-9.25 1.25-6.75 1.5-6.25 2.75-8.75 2.75-6.75 2.25-5 3-5.5 1.5-2.5 1.25-2.25 3-4.75 3.5-4.75 2.75-3.5 0.75-0.5-0.5 1-3.25 4.5-3.5 4.75-2.5 4.25-2.25 3.75-2.5 4.75-1.75 4v1.25l1.5 2 2-0.25 1.25-0.75 1.25-1.25 1-0.5v-0.5h0.5l0.5-1.25 4-6.75 3.5-5.5 3.5-4.25 1.75-2.25 3-3.5 3.5-3.75 4-3.75 2-1.75 2.5-2.25 4-3.25 4-3 2.5-1.75 8.5-5 4-2 4.5-2 4.5-1.75 7.5-2.25 8-2 5.5-1zm108.75 156.5l0.25 0.5zm-0.25 0.5l0.25 0.75z"/>
	<path class="s2" d="m411 127.75l1 0.5 2.5 2 3.25 2.75 2.5 2.5 1.5 1.25 1.75 2 2.75 2.75 2.25 2.75 3 3.75 3.25 4.5 3.25 5 3.25 5.75 4 8 2.5 6.5 2 5.75 2 8.25 1.25 8.75 0.75 5.5 0.25 0.25v28.5l-2.25 8.25-2.25 9.75-1 4-0.25 2.75-0.5 2.25 0.25 0.75-1.75 4.75-2 4.25-2.75 4.5-4 5.75-2.5 3.5-1.75 2.25h-0.75l-1.5 0.5v0.5h-0.5l-0.5 1-1 1.25h-0.5l-0.5 1-2.5 3.5-2 4-1.25 4.5-0.5 4v2.5l0.75 3.5 1.25 3.25-0.25 0.75-1.5-2.5-1-2.25-1.25-0.5-1.75 1-3.25 2.5-4 2.5-4.25 2.5-4.5 2.5-6.5 3-3.75 1.5-7.5 2.5-8.25 2.25-7.25 1.25-9.5 1.25-6.25 0.5h-13l-8.25-0.75-14-2.25-10-2.75-6.25-2.25-5.75-2.5-5.5-2.5-6-3.5-3.75-2.5-4.25-3-3.5-2.75-3.75-3.25-1.75-1.75-2-1.75-1.75-1.75-1.75-2-2.75-3-3-4-3.5-4.75-3-4.75-2.5-4.5-2.5-4.75-3-6.75-2.5-6.75-1.5-4.75-2.25-8.5-1.25-6.25-1.25-9-0.75-8-0.25-6v-6.75l0.5-7.25 1.25-9.25 1.25-6.75 1.5-6.25 2.75-8.75 2.75-6.75 2.25-5 3-5.5 1.5-2.5 1.25-2.25 3-4.75 3.5-4.75 2.75-3.5 0.75-0.5-0.5 1-3.25 4.5-3.5 4.75-2.5 4.25-2.25 3.75-2.5 4.75-1.75 4v1.25l1.5 2 2-0.25 1.25-0.75 1.25-1.25 1-0.5v-0.5h0.5l0.5-1.25 4-6.75 3.5-5.5 3.5-4.25 1.75-2.25v0.75l-3.5 4.75-2 3-3 4.75-2.25 4-3 5.75-3.25 7.75-2.75 8.25-2 7.75-1.5 8.75-1 10.5v9.25l0.5 7.25 1.5 10.5 1.5 6.5 2 7.25 2 5.75 3.25 7.5 3 6 2.5 4.25 3 4.75 2.5 3.5 2.25 3 2.25 2.75 3 3.5 6.75 6.75 2.75 2.25 3.75 3 4.75 3.5 5.25 3.5 4.25 2.5 6 3 5.25 2.25 5 2 7.25 2.25 10.75 2 5.5 0.75 3.25 0.25h11.5l8-0.75 9.25-1.5 6.25-1.5 7.25-2.5 6-2.5 6-2.75 4-2 5.5-3.5 4-2.75 3.5-2.75 2.75-2.25 3-2.5 1-2 0.5-4.75 0.75-3.5 0.25-1.75-2 0.5-3.75 2.5-2.5 2.25-2 1.75-7.5 7.5-4.25 3.25-4.75 2.75-4.5 2-2 0.5-3.75 0.25-3.25-1-2.5-2-1.75-0.75-5.75-0.25-5.5-1.5-7.25-2.75-8.75-2.75-2.75-1.75-3-2.75-4.25-3.25-3-2.25-1.75-1.5-3.25-4.25-3-4.5-1-1.75-0.75-3.25v-6.75l-0.5-7.5 1-1.75 0.75-1h0.5l0.5-1 2.25-2.5 1.75-2.75 1.5-2.5 2-2.25 3.5-2 3.25-1 4.75-0.75 3.75-0.25 5.5 1 4.25 1.25 2.75 1.25 2.5 1.25 2.75 1.75 4 3 1.25 1 0.75 0.25-0.5-1-2.75-2.25-1.25-0.75v-0.5l-1.25-0.5-1.75-1v-0.5l-1.25-0.5-4.75-2.75-8-4.25-4.25-3-3-2.75-2.25-2.5-1.5-2.5-1.5-5.25-1-6.5-1.25-12.25-1.25-5.5-1.75-5-3.75-9.5-3.5-10.25-1.5-6.5-0.5-3.25-0.25-4.5 0.75-4 1.25-3.25 1.75-2.75 2-1.75 2.25-1 2.5-0.25 5 1.25 4.25 2 5.5 3.5 3 2.25 3 2.75 4.75 4.75 2.25 2.75 3.25 4 3 4 2.5 3.5 3.25 4.5 6 8.5 5.5 8.25 3 5 3.25 5.5 4 7-0.25-1.25-1-2.25-0.5-1.75-2-4-3.75-7-2.25-4-2.5-4.75-0.25-2 1.5-6v-2l-1.5-5.25-0.25-2.5v-2.75l0.5-2.75 1.25-5.25 0.25-4.5 1.5-4 1-3.25 0.75-3 1.5-2.75 1.75-2 2.25-1.25h2.75l2.5 0.75 2.5 1.75 2.75 2.25 2.75 3 1.5 1.75 2.75 4.25 2.25 3.75 2 3.75 3.25 7 2 4.5 2.75 6.75 4 11 3 9 3.5 10.75 1.5 6.5 1.5 9.5 0.75 7.25 0.5 9.75h1.75l1.75-1 2-2.25 2.5-3.25 3.75-3.75 0.75-1.25 0.75-7.25v-21.5l-1-8.5-1.25-6.5-2-7.25-3.25-9-2-4.75-2.25-4.75-1.5-2.5-1.75-3.5-1.75-2.5-2.5-4-2.25-3.25-2-2.75-2.25-2.75-3-3.5-8.5-8.5-3-2.25zm36.25 134.5l0.25 0.5zm-0.25 0.5l0.25 0.75z"/>
	<path class="s3" d="m337.75 55.25h14.25l8.5 0.5 8.75 1 11 2 8.5 2 8.75 2.5 9.25 3.25 6.75 2.75 3.5 1.5 3.75 1.75 9.5 4.75 3 2 1.5 1.25-1.5 4-2.75 6-7.5 17.5-4 9.75-1.25 2.25-0.5 0.25-1.75-1v-0.25l1.25-0.25 2-3.5 0.25-1h0.5l0.75-2.25 1.25-3.25 1-1.75 0.75-2.5 1-1.5 0.25-1 1-2.25 1.25-3.25 1.75-3.75 0.25-1h0.5l0.25-1.25 1-2 0.75-2.25 1.5-3 0.25-2.25-2.5-1.75-2-1.25-3-1.5-2.5-1.5-5.25-2.25-4-2-3-1.25-5.25-2-6.5-2.25-2.5-1-3.25-0.75-5.75-1.75-2.75-0.75-10-2-5-0.75-0.75-0.25-3-0.25-0.5-0.25-3-0.25-0.5-0.25-6.5-0.25-1.75-0.25h-20.25l-11 1-1.5 0.25-5 0.75-0.5 0.25-4.25 0.5-1.75 0.5-3.75 0.75-3 0.5-1.5 0.75-2.5 0.5-2.25 0.75-3.75 1-2.25 0.75-2.25 1-2.5 0.75-2.25 0.75-3.25 1.5-2.5 1-6.25 3-2.5 1.25-1 0.75-1.25 0.5-4.5 2.5-2 1.5-1.75 1-1.25 1-1.75 1-1 1-1.25 0.5-1.5 1.25h-0.75v0.5l-2.75 2-5 4-1 1h-0.5l-0.25 0.75-2.5 2-1.5 1.75-2 1.75-2.25 2.25h-0.5l-0.5 1-0.75 1.25h-0.5l-0.5 1-1.25 1.25-2.5 2.75-1 1.5-1.5 1.75-2.25 2.75-0.5 1-0.5 0.25-0.75 1.25-2.75 3.75-0.25 0.5h-0.5l-0.5 1.5-1.5 2-2.5 4-2.25 3.75-6 12-0.5-0.25 4-8.5 3-5.5 3-5 4-6 3-4 2.5-3.25 2.25-2.75 2.75-3.25 2.25-2.5 1.75-2 4.75-4.75 2-1.75 3.75-3.5 3.5-2.75 3-2.5 4.75-3.5 5.25-3.5 5-3 6.75-3.75 7-3.5 7.75-3.25 9-3 9.75-2.75 12.5-2.5 6.75-1 9.75-0.75z"/>
	<path class="s4" d="m284 76.75h1.75l2 1 1.75 1.5 2 3.25 1.5 3.5 0.75 2.5v2.25l-1.25 2.5-1.25 1.25-2 1.25-0.75 0.25h-1.75l-2-0.75-2-1.75-1.5-2.5-2-4.25-1-3v-1.75l1-2 1.75-1.75 1.75-1z"/>
	<path class="s4" d="m413.5 80.25l2.5 0.25 2.25 1.25 1.25 1.25 0.75 1 0.25 0.75v3l-0.75 2.5-2 4-2.25 3-1.75 1.5-1.25 0.5h-2.75l-2.5-1.25-1.5-1.75-0.75-1.75v-2.75l1.25-3.25 2.5-4.5 2.25-2.5 1.5-1z"/>
	<path class="s1" d="m450.5 238.5h0.5v2l-2 7.5-1.25 4-1.25 3-1.75 5-3 6.5-2.75 5.5-2.75 4.5-2.5 3.75-3 4.25-2.5 3.5-1.75 1.75h-1l0.25-2 6.5-13 3.25-7.25 3-7.25 1.5-3.5 1.5-1 2.25-0.75 1.25-1.25 0.75-1.25 0.25-1v-2.75l-0.5-2.25 0.75-2.5 1.5-2.5 2.25-2.5z"/>
	<path class="s4" d="m390.25 70.75l2.5 0.25 3.25 1.25 2.25 1.5 1.25 2.25v2.5l-1.25 2.5-1.75 1.5-1.75 1-0.25 1.25 1 3.75v2.25l-0.5 0.5h-1.5l-0.75-1-1-4-0.75-3.5-0.25-0.75-0.5-0.25h-1.5l-1.5 4.5-1.25 2h-1.25l-0.75-0.75 0.5-2.5 2.75-7.75 1.25-4 1.25-2.25z"/>
	<path class="s4" d="m306.5 69l2 0.25 2 1.25 1.5 2 0.5 2.25-0.5 2.25-1.75 2 0.5 1 1.75 1.75 2.75 2.25 0.25 0.5v1.75l-0.25 0.25-1.75-0.25-2-1.75-3.25-3.25-1.25-0.75h-2l0.5 2.75 0.75 2.75v2.75l-0.25 0.25h-1.25l-0.75-0.75-1.5-4.25-1-4.25-1.5-5.25-0.5-1.25 0.25-1.5 1.5-1.25z"/>
	<path class="s5" d="m132.5 1.5l1.25 0.25 1.5 2.25 3 7 4.25 10.5 3 7.25 4.75 11 2.75 6.75 3.25 7.75 4 9.5 3.5 8.5 3 7 3.25 7.5 3.25 8 3.75 9 3.25 7.5 4.25 10.25 4.5 10.75 3 7.25 1.5 3.75-0.25 0.75-0.5-1h-0.75l-0.25-0.75-1.75-4.75-1.5-3-1.25-3.25-2.5-6.25-1-2.25-1.5-3.5-1-2.25-1-2.75-1.25-2.75-2.5-5.75-1-3-2-4-1.25-3.5-0.5-1.25-0.5-1.5-1.75-3.5-2-5-1-2.25-1-2.5-1.25-2.75-0.5-2.5-1.5-2.25-0.25-1.5-0.75-1-0.75-1.75-2-4.75-3-7.25-3.25-7.5-1.25-3.25-2.75-6.75-1.25-3-1.75-3.75-0.5-1.5-1.5-3.25-0.5-1.5v-1.5h-0.5l-2-4.25-1-2.25-1.5-3.25-0.75-2.5-1.5-3-1-2.75-0.25-1.25-1-1.5-2-0.25 0.75-0.75z"/>
	<path class="s6" d="m221 129l2.5 1 5 3.25 6.5 4.25 1.5 1v1.75l-1.25 0.75-9.75-0.75-4.5-0.5 1 1 4.5 2.75 4.25 2.75 0.75 0.75-0.25 1.75-1 0.25-3-1.75-4.75-3-5-3.25-2.25-1.75-0.25-1.25 1-0.75 6.25 0.25 4.5 0.25h3.5l-1.25-1-3.25-2-3.75-2.25-1.75-1.75 0.25-1.5z"/>
	<path class="s7" d="m233.75 113.75l3.5 1.25 5 2.25 4 2 3.25 1.5 1.25 1v1.25l-0.5 0.5h-1.75l-2-1.25-1.25 0.25-2 2-1.25 2 0.25 1.25 1 1.5v2l-0.25 0.25h-1.25l-1.75-2.25-2-3.25-1.25-2.25-2.25-3.75-2-4v-1.5z"/>
	<path class="s8" d="m333.25 55.5h14.25l10.25 0.5 3.75 0.25 0.5 0.5h-6.5l-1.75-0.25h-20.25l-11 1-1.5 0.25-5 0.75-0.5 0.25-4.25 0.5-1.75 0.5-3.75 0.75-3 0.5-1.5 0.75-2.5 0.5-2.25 0.75-3.75 1-2.25 0.75-2.25 1-2.5 0.75-2.25 0.75-3.25 1.5-2.5 1-6.25 3-2.5 1.25-1 0.75-1.25 0.5-4.5 2.5-2 1.5-1.75 1-1.25 1-1.75 1-1 1-1.25 0.5-1.5 1.25h-0.75v0.5l-2.75 2-5 4-1 1h-0.5l-0.25 0.75-2.5 2-1.5 1.75-2 1.75-2.25 2.25h-0.5l-0.5 1-0.75 1.25h-0.5l-0.5 1-1.25 1.25-2.5 2.75-1 1.5-1.5 1.75-2.25 2.75-0.5 1-0.5 0.25-0.75 1.25-2.75 3.75-0.25 0.5h-0.5l-0.5 1.5-1.5 2-2.5 4-2.25 3.75-6 12-0.5-0.25 4-8.5 3-5.5 3-5 4-6 3-4 2.5-3.25 2.25-2.75 2.75-3.25 2.25-2.5 1.75-2 4.75-4.75 2-1.75 3.75-3.5 3.5-2.75 3-2.5 4.75-3.5 5.25-3.5 5-3 6.75-3.75 7-3.5 7.75-3.25 9-3 9.75-2.75 12.5-2.5 6.75-1z"/>
	<path class="s9" d="m206.5 154.25h4.75l8.5 1 5.5 0.5 0.75 1.25-0.5 1.5-1.5 0.25-3-0.25-2.25 5 0.5 1 2 1.5 0.5 1-0.25 1.5-1.5-0.25-3.25-2.75-2.5-2.25-2.75-2.25-3.5-3-1.75-2z"/>
	<path class="s10" d="m340.75 95.5h4.75l9 0.25 5.75 0.5 3 0.5 2.25 0.75 2.25 0.25 2 0.75 2.75 0.5 1.25 0.5-1 0.25-8.75-1.75-9.5-1-5-0.25h-5.25l-6.75 0.25-8.5 0.75-5.75 1-7.5 1.75-5.25 1.5-8 3.25-7.75 3.75-4.75 2.75-5.25 3.5-3.5 2.5-3.5 2.75-3.5 3-2.75 2.25-7.25 7.25-2.25 2.75-2 2.5-1.25 1-5.25 7-0.25-0.5 2.25-3.5 2-2.75 0.25-0.5h0.5l0.5-1 2.5-3.25 2.75-2.75 1.75-2 6.5-6.5 2.75-2.25 4-3.25 7.5-5.25 4.25-2.75 6.75-3.5 1.25-0.25 0.25-0.5 2-0.75 1-0.75 3-1.25 4-1.5 4.25-1.5 4-1 4.25-1 1.25-0.5 3.5-0.5 2-0.5 4.25-0.5z"/>
	<path class="s4" d="m344.75 64.25h1.75l0.25 0.5 0.25 6.75 1.5 0.5h3.75l0.75-0.25 0.5-6.25 0.25-0.75 1.5-0.5 0.75 0.5v9.75l-0.25 7.5-1 1-1.75-0.75v-6.5l-1.25-0.5h-4.5l-0.5 0.25-0.25 5-0.25 1.75-1.25 0.5-1-0.5-0.25-2.75 0.25-9.25 0.25-5.25z"/>
	<path class="s4" d="m369.75 66h2.25l5.25 1 0.5 0.25v1.5l-0.75 0.75h-2.25l-2-0.5h-1.75l-0.5 1.75v3l0.75 0.5 4 0.75 0.75 0.75-0.5 1.25-0.25 0.25h-2.75l-3-0.5-0.5 3v2l0.75 0.5 4.5 0.75 0.75 0.25v2l-0.25 0.25h-3l-4.5-1-1.25-1-0.25-0.5v-2.25l1-4.5 1-5.75 0.75-3 0.75-1.25z"/>
	<path class="s11" d="m419.75 312.25l1.25 0.5 0.75 1 1 2.5 0.75 1.25 0.75 0.75 2.75 6.5 4.5 9.75 3.5 7.25 2.75 5.75 0.5 2-1.25 1.25-2.25 1.25 0.25-1 1.5-1h0.5l-0.25-2-2-4-2-4.25-2.25-4.75-2-4-2.25-4.75-1.5-3.25-1.25-2.75-2-4-1.25-2.75-1.25 0.25-1.25 0.5v0.5l-2.75 1.75-3.25 2-2.75 1.75-2.25 1.25-4.75 2.5-5.5 2.5-1.75 0.75-4.5 1.75-2.5 1-2.75 0.75-0.75 0.25-2.75 0.75-1.5 0.5h-1.5v0.5l-8.75 1.5-2.75 0.25-2.25 0.5-10 1-9.5 0.25-7.75-0.25-11.25-1.25-6.25-1.25-4.5-0.75-3.5-1-2.25-0.75-2-0.75 1-0.25 6 1.75 5.75 1.25 11.25 1.75 8.25 0.75h13l8.75-0.75 11.75-1.75 6.25-1.5 7.75-2.25 4.75-1.75 5.5-2.25 5.75-2.75 5.25-3 4-2.5 3-2 3.25-2.5z"/>
	<path class="s0" d="m284 79.5l2 0.25 1.75 1.5 2 4 1.25 3 0.25 2.5-1.5 1.75-1 0.5h-2.5l-1.5-1.25-1.25-2-2-4.5-0.25-1v-2l0.75-1.5 1.25-1z"/>
	<path class="s0" d="m413 83.25h2.5l1.5 1 1 1.5-0.25 2.25-2 4.25-1.75 2.75-1.5 1.25h-2.5l-1.25-0.5-1-1.5v-2.25l1.25-3 2.25-4 1.25-1.5z"/>
	<path class="s4" d="m265.5 87h1.5l1 0.75v1.5l-3 0.75-2 1.75-0.25 1.5 0.75 1.75 1.75 3 2 3 1.75 1.5 1.75 0.25 2-0.75 0.75-1.25 1-1.25h1.75l0.25 0.25-0.25 1.75-1.75 2-2 1.75-1.5 0.5h-1.75l-2-1-2.25-2-2.5-3.5-2.25-4.25-0.25-1v-2l1-2 1.75-1.75 2-1z"/>
	<path class="s4" d="m327.5 64.5h3l2 1.25v1.5l-0.25 0.25-2.5-0.25h-2.25l-1.25 0.5-0.5 1.25-0.25 0.5v4l0.5 3.75 1 2.75 1 1 2.25 0.25 1.25-0.5 1.25-0.75 1.5-0.25 0.5 0.5-0.25 1.5-1.75 1.5-2.25 0.75h-1.75l-2.25-0.75-1.5-1.25-1.5-3-1-6.25v-3.25l1.25-2.5 2.25-2z"/>
	<path class="s12" d="m164 74.25l0.75 0.25 2.75 6.5 3 7 2.75 6.75 3.75 9 3.25 7.5 4.25 10.25 4.5 10.75 3 7.25 1.5 3.75-0.25 0.75-0.5-1h-0.75l-0.25-0.75-1.75-4.75-1.5-3-1.25-3.25-2.5-6.25-1-2.25-1.5-3.5-1-2.25-1-2.75-1.25-2.75-2.5-5.75-1-3-2-4-1.25-3.5-0.5-1.25-0.5-1.5-1.75-3.5-2-5-1-2.25-1-2.5-1.25-2.75z"/>
	<path class="s5" d="m247.25 344l2 0.5 3.25 2.5 2.5 1.75 4.25 2.75 2.5 1.5 0.5 0.75 2.25 1 2.5 1.25 1 0.75 2.5 1 1.25 0.75v0.5l2.25 0.75 2.75 1 2.75 1.5 3 1 2 1 3.25 1.25 5 1.75 3.75 1.25 4.75 1.25 2.75 0.75 2.5 0.5 1 0.5 2.25 0.25 2.25 0.75 6 1 4 0.5 1.5 0.25 1.25 0.25 3.75 0.25 2.75 0.5v0.25h-2.25l-11.25-1.25-6-1-8.25-1.75-8.25-2.25-9-3-6.5-2.75-7.5-3.5-6.5-3.5-5.75-3.5-5-3.25-3.75-2.5-4-3z"/>
	<path class="s13" d="m90 191.75l0.25 0.5-2.5 6.75-0.5 1.25h81.5l4.75 0.25 0.25-0.5-0.25 1-85.5 0.25-1.25-0.75v-2l1.75-4 0.75-1.75z"/>
	<path class="s14" d="m277.75 68.75l0.75 0.25-0.75 0.75-6.25 3-2.5 1.25-1 0.75-1.25 0.5-4.5 2.5-2 1.5-1.75 1-1.25 1-1.75 1-1 1-1.25 0.5-1.5 1.25h-0.75v0.5l-2.75 2-5 4-1 1h-0.5l-0.25 0.75-2.5 2-1.5 1.75-2 1.75-2.25 2.25h-0.5l-0.5 1-0.75 1.25h-0.5l-0.5 1-1.25 1.25-2.5 2.75-1 1.5-1.5 1.75-2.25 2.75-0.5 1-0.5 0.25-0.75 1.25-2.75 3.75-0.25 0.5h-0.5l-0.5 1.5-1.5 2-2.5 4-2.25 3.75-6 12-0.5-0.25 4-8.5 3-5.5 3-5 4-6 3-4 2.5-3.25 2.25-2.75 2.75-3.25 2.25-2.5 1.75-2 4.75-4.75 2-1.75 3.75-3.5 3.5-2.75 3-2.5 4.75-3.5 5.25-3.5 5-3 6.75-3.75z"/>
	<path class="s15" d="m298.75 105.75l1.75 0.25-0.75 0.5-5 2.5-4.75 2.75-5.25 3.5-3.5 2.5-3.5 2.75-3.5 3-2.75 2.25-7.25 7.25-2.25 2.75-2 2.5-1.25 1-5.25 7-0.25-0.5 2.25-3.5 2-2.75 0.25-0.5h0.5l0.5-1 2.5-3.25 2.75-2.75 1.75-2 6.5-6.5 2.75-2.25 4-3.25 7.5-5.25 4.25-2.75 6.75-3.5 1.25-0.25z"/>
	<path class="s7" d="m285.75 78.25l1.25 0.25 1.25 1 2.25 2.75 1.25 2.5 1 2.75v4.25l-0.25 0.5h-0.5l-0.5 1.25-2.5 1.75h-2.5l-1.25-0.5-2.5-2.25-2.25-4.25-1.25-3.75 0.25-3.5 1-1.5 1.75-0.75h0.75l-0.5 1-1.25 1.25-1 1.5 0.5 1.75 1.25 3 1.5 3.25 1 1.75 1.25 0.75 1.25 0.25h2l1.25-0.75h0.5l0.5-1.25 0.25-0.5v-2.25l-1-2.5-1.25-3-2-2.75-1.75-1.5z"/>
	<path class="s7" d="m301.5 71.5l1 0.25 0.25 0.75-0.25 2.25 0.75 2.5 1.25 1.25h2l3.5-1.75h0.75l-0.25 1.25h-0.5l-0.25 1.5 3 3v0.5l1 0.5 1 1.25-0.25 1.25-1.5-0.75-2.75-2.5-1.5-1.75-1.75-1h-2.25l-0.25 2.5 1 3v2.5l-1.25-0.5-1.5-6.5-0.25-0.25-0.5-2.75-1-3-0.5-2.25v-0.5l1-0.25z"/>
	<path class="s16" d="m131 91.25l1 1-0.25 1-0.75-1.25-3.75 8.75-4.5 11-2.75 7-3.75 9.25-4 10-2.75 7-4.5 10.75-0.75-0.25 0.75-2.25 0.5-0.5 0.5-1.5 0.25-1.25h0.5l0.25-2.25 0.75-1.25 0.25-1.25h0.5l0.5-2 0.75-2 0.75-1 0.75-2.25 1-2.75 0.5-1 1.5-3.75v-0.75h0.5l0.25-1.25 0.5-0.75 0.5-1.5 0.5-1 1.25-3.75h0.5l1.5-5 0.75-1 1-2.75 0.5-1.25 0.5-0.75 0.5-1.5 0.5-1 0.75-2.25 0.75-1.75 0.5-0.75 0.75-2.25 1.5-3.25 1.25-3.75 1-1.75z"/>
	<path class="s1" d="m411.5 317.75h0.5l-0.5 1-3.5 2-2 1.25-5.25 2.5-5 2.5-4.25 1.5-1.5 0.75-4.25 1.25-1.5 0.5-2.75 0.75-1.5 0.5h-1.5v0.5l-8.75 1.5-2.75 0.25-2.25 0.5-10 1-9.5 0.25-7.75-0.25-11.25-1.25-6.25-1.25-4.5-0.75-3.5-1-2.25-0.75-2-0.75 1-0.25 6 1.75 5.75 1.25 11.25 1.75 8.25 0.75h13l8.75-0.75 11.75-1.75 6.25-1.5 7.75-2.25 4.75-1.75 5.5-2.25 5.75-2.75 5.25-3z"/>
	<path class="s17" d="m214.5 308.25l1.25 1 1.5 2.5 2.5 3.25 2 2.5 2 2.75 2.5 2.75 1.75 2 3.5 3.75 10.25 10.25 2.75 2 1.25 1 0.5 0.5-0.25 0.5-1-0.5-2.5-2-3.25-2.75-4.25-4-2.75-2.75-1.5-1.25-1.75-2-3-3.25-2.75-3.5-2.75-3.25-3-4-3-4.25z"/>
	<path class="s7" d="m265.25 88l1.25 0.25-0.5 1-2 0.75-0.5 0.5h-0.75l-0.5 1.5v2.25l1 1.75 2.25 3.5 1 1.25v0.5h0.5l0.5 1 2.5 1.25 2-0.25 0.75-0.75h0.5l0.5-1 1-0.75 0.25 0.25v1.25l-1 1h-0.5v0.5l-2.5 1.5-2.25-0.25-2-1.25-1.75-2-1.5-2.25-1.5-2.5-1.25-2.5v-1.75l0.5-1.75 2-2z"/>
	<path class="s4" d="m233.75 113.75l3.5 1.25 5 2.25 4 2 3.25 1.5 1.25 1v1.25l-0.5 0.5h-1.75l-2-1.25-1.25 0.25-2 2-1.25 2 0.25 1.25 1 1.5v2l-0.25 0.25h-1.25l-1.75-2.25-2-3.25-1.25-2.25-2.25-3.75-2-4v-1.5zm0.25 1l-0.5 0.25-0.25 1.5 2.25 4 1 1.75 2 3.25 1.5 3 1.75 2.5 0.75 0.25 0.25-0.25v-1.75l-0.75-1.25-0.5-0.75 0.25-1.5 0.25-1h0.5l1-1.5 1.5-1.25h2.25l1 0.75h1.25l-0.25-1.25-2.5-1.5-3.25-1.25-2.75-1.5-2.5-1-3.5-1.5z"/>
	<path class="s0" d="m305.75 71.75h2.25l1.5 1.75 0.25 1.75-1.75 2-2 1h-1.5l-1-1-0.75-1.75v-2l1.5-1.25z"/>
	<path class="s0" d="m392 73.5l1.5 0.5 2.75 1.75 0.75 1v1.25l-1.25 1.75-1 0.5-2.5-0.25-2-0.75-0.5-0.75 0.5-2.25 1.25-2.25z"/>
	<path class="s4" d="m221 129l2.5 1 5 3.25 6.5 4.25 1.5 1v1.75l-1.25 0.75-9.75-0.75-4.5-0.5v0.5l-0.75-0.25 0.25-0.75 1.25-0.25 9.25 0.25 2.5 0.5 2.5-0.25-0.25-1-3.5-1.75v-0.5l-1-0.5-7.5-4.75-2-1-0.5 0.25 0.75 1.25 1.25 1 2.25 1.25 4.75 3 1 0.75v0.5l-0.5 0.25h-4v-0.25l3.5-0.25-1.25-1-3.25-2-3.75-2.25-1.75-1.75 0.25-1.5z"/>
	<path class="s18" d="m430.75 88.5l0.25 0.75-2.75 6.5-4.5 10.5-3.75 9-1.75 4-1 1-1.75-1v-0.25l1.25-0.25 2-3.5 0.25-1h0.5l0.75-2.25 1.25-3.25 1-1.75 0.75-2.5 1-1.5 0.25-1 1-2.25 1.25-3.25 1.75-3.75 0.25-1h0.5l0.25-1.25 0.75-1.5z"/>
	<path class="s19" d="m231.25 102.5l0.25 0.75h-0.5l-0.5 1-1.25 1.25-2.5 2.75-1 1.5-1.5 1.75-2.25 2.75-0.5 1-0.5 0.25-0.75 1.25-2.75 3.75-0.25 0.5h-0.5l-0.5 1.5-1.5 2-2.5 4-2.25 3.75-6 12-0.5-0.25 4-8.5 3-5.5 3-5 4-6 3-4 2.5-3.25 2.25-2.75 2.75-3.25 1-1.25 2-1.75z"/>
	<path class="s15" d="m104.5 155.75l0.25 0.75-3 7.5-2.75 7-3.5 8.5-3.25 7.75-1.25 3-0.5-0.25 0.5-1.75 0.5-0.75 0.5-1.75 1-2.5h0.5l0.5-2.5 1.5-3.75 1.5-4 0.5-1 1-2.75 1.25-3.5 0.75-1 1-3 1-2 1.5-3.5z"/>
	<path class="s7" d="m325 67.5h0.5v0.5h-0.5l0.25 0.75-0.25 0.5v3.25l0.5 5.5 0.75 2 1.25 1.25 1.75 0.5h1.5l1.75-0.25 0.5 0.5-0.5 0.75-1.5 0.5h-2.5l-1.75-0.75-1.25-1-1.25-2.5-0.5-2.75-0.25-4 0.5-3.75z"/>
	<path class="s7" d="m369.75 67.25h1.25l0.5 1-1 0.5-0.5 1.5-0.25 4 0.25 0.75h0.5l-0.25 0.75-1 0.5-0.75 2.75-0.25 2.25 0.5 1.25 3.75 1 0.5 0.75h-3l-2.25-0.5-0.75-0.75-0.25-1 1-5.5 0.25-2.5 0.25-0.25 0.25-2.25 0.75-2.75 0.25-1.25z"/>
	<path class="s4" d="m206.5 154.25h4.75l8.5 1 5.5 0.5 0.75 1.25-0.5 1.5-1.5 0.25-3-0.25-0.5 0.5 0.25-1 1.5-0.25 2.75 0.25v-1l-2.25-0.75h-3.75l-5.5-0.5h-2.25l-4-0.25v0.75l1 1v0.5l1 0.5 1.75 1.75h-0.75l-3.25-3-0.75-1z"/>
	<path class="s20" d="m306.5 59.25h1.5l-0.25 0.75-3 0.75-2.5 0.5-2.25 0.75-5.25 1.5-3.25 0.75-3.25 1.5-2.5 0.75-2.25 0.75-3.25 1.5-2 0.5 0.25-0.75 7-3 9-3 9.75-2.75z"/>
	<path class="s21" d="m115.75 127.75l0.25 0.75-3.75 9.5-2.75 7-4.5 10.75-0.75-0.25 0.75-2.25 0.5-0.5 0.5-1.5 0.25-1.25h0.5l0.25-2.25 0.75-1.25 0.25-1.25h0.5l0.5-2 0.75-2 0.75-1 0.75-2.25 1-2.75 0.5-1 1.5-3.75v-0.75h0.5l0.25-1.25z"/>
	<path class="s15" d="m30.25 242h0.5l-0.25 1.25-1 2-1.5 4-1.5 3.75-2.25 5.25-1.25 2.5-1.5 4.25-0.5 0.5-0.75 2.25-2 4.75-1 2.5-1.25 2.75-1 2.5-1 1 0.75-2.25 3.5-8.5 7.5-17.5 3.5-8.5z"/>
	<path class="s0" d="m210.75 157.25h4l3.25 0.25 0.5 0.25-0.25 1.5-1.5 3-1-0.5-3.5-3-1.5-1z"/>
	<path class="s7" d="m407.5 89h0.5l-0.75 3v2l0.5 1.25 0.5 1h0.75v0.5l1 0.25h2l1.75-1 0.75-0.75 0.5-0.75h0.5l0.25-0.5 0.25 1.25-1.5 1.75-2.25 1.25-1.25 0.25-2.25-0.5-2-1.75-1-1.75 0.25-3.25 0.75-1.75z"/>
	<path class="s4" d="m216 137.25l6.25 0.25 4.5 0.25v0.25l-8 0.25-2.75-0.25 0.5 1.25 1.5 1.25 2.75 1.75 3.5 2.25 2.25 1.5 2.75 1.75 1 0.25-0.5-1.75-2.5-1.75h0.75l2.75 1.75 0.75 0.75-0.25 1.75-1 0.25-3-1.75-4.75-3-5-3.25-2.25-1.75-0.25-1.25z"/>
	<path class="s22" d="m52 283.25h0.5l-0.25 1.25-3.5 9-3.5 8.75-3.75 9.25-1.25 2-0.25-0.5 0.75-1.25 0.5-1.75 1-2.5 1.75-4.5 0.75-2 1.25-3 0.75-2.25 0.75-1 0.75-2 0.75-2.25 2-4.5 0.25-1z"/>
	<path class="s1" d="m130.25 234.5h43.5l13.5 0.25 0.5 0.75-0.5 0.25-0.75-0.25-3.25-0.25-33.75-0.25-19.25-0.25z"/>
	<path class="s0" d="m236.75 118l1.25 0.25 2.25 1 2.5 1.25 0.25 1-2.25 2.25-1-0.25-3-4.5z"/>
	<path class="s18" d="m129.75 5l0.5 0.25-1.25 3-0.75 2.25-1.75 4.25-1.25 3-1.25 2.5-0.75 2.25-1.25 2.75-1.5 3.75-1 2.25-1 0.5 0.75-2.25 3.75-8.75 2.25-5.5 3.5-7.75z"/>
	<path class="s23" d="m78.25 127.75h0.5l-0.25 1.5-0.5 0.5-1.5 4.25-1.25 2.5-2 5.25-1.75 3.75-1.25 3.25-1.25 3-1 2.25-0.75 0.25 0.75-2.25 3-7.25 3.25-7.75 3.25-7.5z"/>
	<path class="s7" d="m388.75 76.5l0.5 0.75 0.25 2 1.25 0.75 2.5 0.75 1.25 0.25 0.25 1-1.75 1.25-0.75-0.25-0.75-1.25-1.5-0.75-1.5 0.25-1.25 1.75-0.25-0.75 0.25-2 1.25-3.5z"/>
	<path class="s24" d="m13.5 313.5h19.75l6.25 0.25-0.75 0.5h-10.5l-25-0.25v-0.25z"/>
	<path class="s25" d="m137 106l0.75 1 1.75 4.5 1 2.5 0.75 2v0.75h0.5l1 2.75 0.75 2.25 0.75 2 1 2.75 1.25 3.25 2 5 0.25 0.25v1.25l-0.75-1-3-7.5-4-10.25-3.5-9.5-0.5-1.25z"/>
	<path class="s26" d="m118.75 31.75l0.25 0.5-0.75 2-3 7-1.25 3-1 2-1 2.75-1.25 3-2 4.75-0.75 0.25 0.5-1.5 4.5-10.75 3.25-7.75 2-5z"/>
	<path class="s27" d="m430.75 88.5l0.25 0.75-2.75 6.5-3.25 7.5-0.75-0.75 1.25-2.75 1.25-3.25 1.75-3.75 0.25-1h0.5l0.25-1.25 0.75-1.5z"/>
	<path class="s7" d="m354.75 66l0.75 0.25v4.75l-0.25 3-0.5 1-1.25-0.25-1-0.75v-0.75l1.25-0.75 0.5-1.75 0.25-4.25z"/>
	<path class="s4" d="m236 117.25l2 0.25 2.5 1.25 3 1.75-0.25 1.25-2.5 2.75-1.25-0.5-1.75-2.5-1.75-2.75-0.25-1.25zm0.75 0.75l0.25 1.5 2.75 4 1 0.25 2.25-2.25-0.25-1-4-2-1.25-0.5z"/>
	<path class="s28" d="m307.25 70l1.25 0.25v0.5l1.5 0.5 0.5 0.5v1l1 0.25 0.25 0.5v2.5h-0.75l-0.25-0.75-0.5-1.75-1.25-1.5-1-0.5h-2l-2 0.25-0.25-0.75 2.5-0.5z"/>
	<path class="s29" d="m291.25 63.5l0.5 0.25-0.5 0.75-2.5 1-2.25 0.75-1 0.5-2 0.5-3.25 1.5-2 0.5 0.25-0.75 7-3z"/>
	<path class="s30" d="m247.25 344l2 0.5 3.25 2.5 2.5 1.75 4.25 2.75 0.5 0.75h-0.75l-4.5-2.75-5-3.5-2.25-1.75z"/>
	<path class="s31" d="m245.25 89h0.5v0.5l-2.5 2-1 1h-0.5l-0.25 0.75-2.5 2-1.5 1.75-2 1.75-2.25 2.25h-0.5l-0.5 1-1.75 1.25 0.5-1 5.75-5.75 2-1.75 3.75-3.5z"/>
	<path class="s32" d="m101.75 71.5l0.5 0.25-1.25 3.5-0.75 1.75-1 2.25-1.25 3.25-1.25 2.75-1 2.25-1.25 3-1 2.5-1 1 0.5-1.5 4.5-10.5z"/>
	<path class="s33" d="m235.5 333l1.75 1.5 4.5 4.5 2.75 2 1.25 1 0.5 0.5-0.25 0.5-1-0.5-2.5-2-3.25-2.75-3.5-3.25v-0.75z"/>
	<path class="s7" d="m345.25 68.75h0.5l0.25 3.25 0.25 0.75 1 0.5-0.25 1-1 1-0.25 2.75-0.5 0.25-0.25-1.75v-7.5z"/>
	<path class="s34" d="m64.25 253.75l0.25 0.75-2.75 6.75-3.75 9.25-0.5-0.25 0.25-1.75 0.75-0.75 0.75-2.75 0.75-1.5 0.5-0.75 0.5-1.75 0.5-0.75 0.5-1.75 0.5-0.75 0.5-1.5z"/>
	<path class="s22" d="m20.5 266l0.25 0.75-3 7-1 2.5-1.25 3-1.25 2-0.25-0.5 4.25-10.25 1.75-4z"/>
	<path class="s18" d="m212 128v0.75l-2 3.5-6 12-0.5-0.25 4-8.5 3-5.5 1-1.75z"/>
	<path class="s35" d="m131 91.25l1 1-0.25 1-0.75-1.25-3.75 8.75-2.25 5.5-0.5-0.5 0.5-1.5 0.5-0.75 0.75-2.25 1.5-3.25 1.25-3.75 1-1.75z"/>
	<path class="s36" d="m13.75 281.5l0.5 0.25-1 2.5-1 2.75-0.75 1.25-1 3-0.75 1.75-1.5 3.25-1 2.75-1.25 2.5-0.25-0.5 3.5-8.5 2.75-6.75z"/>
	<path class="s2" d="m419.5 72.25l1.25 0.25 9.5 4.75 3 2 1.5 1.25h-0.75l-7.75-4.5-3.5-1.75-3.25-1.75z"/>
	<path class="s37" d="m108 145.25l0.5 0.25h0.5l-0.25 1.25-3.75 9-0.75-0.25 0.75-2.25 0.5-0.5 0.5-1.5 0.25-1.25h0.5l0.25-2.25 0.75-1.25z"/>
	<path class="s38" d="m214.5 308.25l1.25 1 1.5 2.5 1.75 2.25 0.75 1.75 1.75 2v0.5l-1-0.5-3-4-3-4.25z"/>
	<path class="s39" d="m96 177.25l0.25 0.5-3.25 7.75-2 4.75-0.5-0.25 0.5-1.75 0.5-0.75 0.5-1.75 1-2.5h0.5l0.5-2.5 1-2.5z"/>
	<path class="s1" d="m291.5 323.25l1.5 0.5 6 2.75 5.25 2 3.5 1.25v0.25l-2.5-0.25-3.25-1.5-2-0.75-4.25-1.75-4.25-2.25z"/>
	<path class="s35" d="m255.5 81.25l0.5 0.25-1.5 1.75-1.25 0.5-1.5 1.25h-0.75v0.5l-2.75 2-2 1.75-0.5-0.25 1-1.25 3.25-2.5 4.5-3.25z"/>
	<path class="s40" d="m265.75 75l0.5 0.25-0.75 0.75-3 1.5-2.25 1.75-1.75 1-1.25 1-1.5 0.5 0.5-1 4.75-3z"/>
	<path class="s41" d="m35.75 229l0.5 0.25-1.75 4.5-0.5 0.75-0.75 2.25-1 2-1 2.75-0.75 0.25 0.75-2.25z"/>
	<path class="s42" d="m231.25 102.5l0.25 0.75h-0.5l-0.5 1-1.25 1.25-2.5 2.75-1 1.5-1 1-1.25 0.75 0.5-1 2.75-3.25 2.25-2.75 2-1.75z"/>
	<path class="s10" d="m52 283.25h0.5l-0.25 1.25-3.5 9-0.5 1.25-0.5-0.25 0.25-1.25 0.5-1 0.75-2.25 0.75-1.75 1-2.25 0.25-1z"/>
	<path class="s22" d="m122.5 22.75l0.25 0.75-1.25 3.25-2 4.5-1 0.5 0.75-2.25 2.75-6.5z"/>
	<path class="s43" d="m71.25 144.25h0.5l-0.25 1.25-1.25 3.25-1.25 3-1 2.25-0.75 0.25 0.75-2.25 3-7.25z"/>
	<path class="s35" d="m112.5 46l0.5 0.25-1 2.75-1.25 3-2 4.75-0.75 0.25 0.5-1.5z"/>
	<path class="s44" d="m90 191.75l0.25 0.5-2.5 6.75-0.5 1.25-0.5-0.5 0.25-2 1.5-3.25 0.75-1.75z"/>
	<path class="s45" d="m209.5 300l1 1 2.25 3.75 0.75 1-0.25 0.5-1.5-1-2.5-4.25z"/>
	<path class="s46" d="m172.5 234.5l14.75 0.25 0.5 0.75-0.5 0.25-0.75-0.25-3.25-0.25-11-0.25z"/>
	<path class="s47" d="m83.5 115.25l0.5 0.25-1.25 3.25-1 2.5-1.25 3-0.5 1.25-0.75 0.25 0.75-2.25z"/>
	<path class="s48" d="m144.5 126h0.5l1 2.5 0.75 1.5 0.75 2.25 1 2.5 0.25 0.25v1.25l-0.75-1-3-7.5z"/>
	<path class="s49" d="m202 286.25h0.5l0.5 1.25v0.75l0.75 0.25 2.25 4.5-0.25 0.5h-0.5l-2.75-5.5z"/>
	<path class="s50" d="m433 352.25l1 0.25-2.5 1.5-5.25 2.75-0.5-0.25 1.25-1 2-1 1.75-1 2-1z"/>
	<path class="s51" d="m32.5 313.5l7 0.25-0.75 0.5h-10.5v-0.25l4-0.25z"/>
	<path class="s52" d="m193.5 144l0.5 0.5 2 5-0.25 0.75-1.5-2.25-1-2.5v-0.75z"/>
	<path class="s53" d="m397.25 108.5l1.75 0.25 1 0.75 3 1.25v0.5l1.25 0.5 2 1v0.5l-1.25-0.5-6.75-3.5-1-0.5z"/>
	<path class="s41" d="m137 106l0.75 1 1.75 4.5 1 2.5 0.25 0.25v1.25h-0.5l-3.25-8.75z"/>
	<path class="s43" d="m313 58l0.75 0.25-0.75 0.75-3.5 0.75h-1.75v-0.75z"/>
	<path class="s54" d="m306.5 59.25h1.5l-0.25 0.75-3 0.75-2.5 0.25 0.25-0.75z"/>
	<path class="s50" d="m365.75 97.75h2l2 0.75 2.75 0.5 1.25 0.5-1 0.25-7-1.5z"/>
	<path class="s55" d="m101.75 71.5l0.5 0.25-1.25 3.5-0.75 1.75-1 2.25-0.75 1.25-0.25-0.5 3-7.25z"/>
	<path class="s56" d="m283.75 66.25l0.5 0.25-0.75 0.75-3.25 1.5-2 0.5 0.25-0.75z"/>
	<path class="s56" d="m129.75 5l0.5 0.25-1.25 3-0.75 2.25-1 2.25-0.75 0.25 0.75-2.25z"/>
	<path class="s22" d="m97.75 172.5l0.25 0.75-1.5 3.75-0.75 0.5-0.25-0.5 1.25-3.5z"/>
	<path class="s57" d="m43 306.75l0.25 0.5-2.25 5.25-1 1 0.5-1.5 0.75-2 1-2.5z"/>
	<path class="s25" d="m321.75 374l3 0.5 3.75 0.25 2.75 0.5v0.25h-2.25l-7.25-0.75z"/>
	<path class="s58" d="m68.75 242.25l0.25 0.75-2.25 6-0.75 1.75h-0.25l0.25-1.75 0.75-2.25 0.75-1.25z"/>
	<path class="s59" d="m207.5 136.25l0.25 0.5-3.75 7.5-0.5-0.25 3.25-7z"/>
	<path class="s11" d="m47.75 294.5l0.25 0.75-1.75 4.5-0.5-0.25 0.25-2 1.25-2.5z"/>
	<path class="s54" d="m55.25 276l0.25 0.5-2.5 6.25-0.5-1 1-1.75 0.5-1.75 1-2z"/>
	<path class="s60" d="m22.75 260l0.5 0.25-1.75 4.75-1.25 1.25 0.75-2.25z"/>
	<path class="s60" d="m93 184.5l0.25 0.5-2.25 5.25-0.5-0.25 0.5-1.75 0.5-0.75 0.5-1.75z"/>
	<path class="s25" d="m64.25 253.75l0.25 0.75-2.25 5.5-0.5-0.25 0.25-1.25 0.5-0.75 0.5-1.5z"/>
	<path class="s61" d="m30.25 242h0.5l-0.25 1.25-1 2-1 3-0.75 0.25 0.75-2.25z"/>
	<path class="s62" d="m73.25 139.5h0.5l-0.5 2.25-1.25 2.5h-0.5l0.25-1.25z"/>
	<path class="s10" d="m115.25 40.25l0.25 0.5-1 2.25-1.25 3h-0.5l0.25-1.25 1.75-4z"/>
	<path class="s63" d="m126.75 100.5l0.25 0.75-2 5-0.5-0.5 0.5-1.5 0.5-0.75 0.75-2.25z"/>
	<path class="s64" d="m247.25 344l2 0.5 1.5 1.25v0.75l-1.25-0.5-2.25-1.75z"/>
	<path class="s65" d="m120.5 27.5l0.25 0.75-1.25 3-1 0.5 0.75-2.25 0.75-1.75z"/>
	<path class="s14" d="m78.25 127.75h0.5l-0.25 1.5-0.5 0.5-1 2.75-0.75 0.25 0.75-2.25z"/>
	<path class="s66" d="m190.5 244.25h0.25l0.5 3v2.25h-0.75l-0.25-2.75z"/>
	<path class="s67" d="m392.5 106l2.25 0.75 2.25 1.25 0.25 0.5-1.25-0.25-3.75-1.75z"/>
	<path class="s54" d="m214.5 124l0.25 0.5-2.25 3.5h-0.5l0.5-1.25 1.5-2.5z"/>
	<path class="s68" d="m124.5 106l0.25 0.75-1.75 4.5-0.5-0.5 0.5-1.5 0.5-1 0.5-1.75z"/>
	<path class="s69" d="m106.75 59.75l0.5 0.25-1.25 3.25-0.75 1.75-0.75 0.25 0.5-1.5z"/>
	<path class="s70" d="m11.25 287.5l0.5 0.25-0.75 1.75-0.75 2.25-0.75 1.5-0.5 0.25 0.75-2.25z"/>
	<path class="s71" d="m142.75 121.5l0.75 0.25 0.75 2 0.5 1v1.25l-0.75-0.75-1.25-3.25z"/>
	<path class="s72" d="m249.5 85.75v0.75l-3.25 2.75-0.5-0.25 1-1.25z"/>
	<path class="s73" d="m117 36l0.25 0.75-1.5 3.5-0.75 0.25 0.75-2.25 0.75-2z"/>
	<path class="s74" d="m59.25 266l0.25 0.75-1.5 3.75-0.5-0.25 0.25-1.75 0.75-0.75 0.5-1.5z"/>
	<path class="s1" d="m214.5 308.25l1.25 1 1.5 2.5 1.25 1.5-0.25 0.5-1.75-2-1.5-2.5z"/>
	<path class="s75" d="m57.5 270.5l0.25 0.75-1.75 4-0.5-0.25 0.5-1.75 1-2z"/>
	<path class="s76" d="m245.25 89h0.5v0.5l-2.5 2-1 1h-0.5l0.5-1z"/>
	<path class="s77" d="m210 301.5l1 1 1.5 2.5v0.5l-0.75-0.25-1.75-3z"/>
	<path class="s25" d="m105.75 152.5l0.25 0.75-1 2.5-0.75-0.25 0.75-2.25z"/>
	<path class="s23" d="m226.25 108.25v0.75l-0.75 1.25-2 1.25 0.5-1 1-1.25z"/>
	<path class="s78" d="m265.75 75l0.5 0.25-0.75 0.75-3 1.5-0.75-0.25z"/>
	<path class="s79" d="m206.25 294l0.75 0.75 1 2-0.25 0.75h-0.5l-0.75-1.5z"/>
	<path class="s80" d="m192.5 255.5h0.25l0.5 4v1.5l-0.5-1-0.75-3.75h0.5z"/>
	<path class="s80" d="m32 237.75h0.5l-0.25 1-1 2.75-0.75 0.25 0.75-2.25z"/>
	<path class="s11" d="m146.75 131.25l1 1.25 0.75 2.25 0.25 0.25v1.25l-0.75-1-1.25-3.25z"/>
	<path class="s10" d="m151.5 143.75h0.5l0.75 1.25 0.75 2.5-0.25 1-1.75-4.5z"/>
	<path class="s81" d="m39.75 219.25h0.25l-0.25 2-1.25 2.5-0.5 0.25 0.75-2.25z"/>
	<path class="s1" d="m219 314.5l1.25 1 2 2.75-0.25 0.5-2.25-2.75-0.75-1z"/>
	<path class="s82" d="m204 290.5l1 0.5 1 2-0.25 0.5h-0.5l-1.25-2.5z"/>
	<path class="s83" d="m188.75 238.75l0.75 0.75 0.5 2.5-0.75 0.25-0.5-2.5z"/>
	<path class="s84" d="m259.75 352l2 1 0.5 1.25-2.5-1.5z"/>
	<path class="s85" d="m90 191.75l0.25 0.5-1 2.5-0.75 0.25 0.5-1.75z"/>
	<path class="s86" d="m149.75 138.75l1 1.25 1 2.5v0.75h-0.5l-1.5-3.75z"/>
	<path class="s71" d="m231.25 102.5l0.25 0.75h-0.5l-0.5 1-2 1.25 0.5-1 2-1.75z"/>
	<path class="s85" d="m101.75 71.5l0.5 0.25-1.25 3.5h-0.5l0.25-1.25z"/>
	<path class="s87" d="m54.5 184.25h0.25l-0.25 2-1.25 2.5-0.5-0.25z"/>
	<path class="s88" d="m96 177.25l0.25 0.5-1 2.5-0.5-0.5v-1.25z"/>
	<path class="s89" d="m68.75 151l0.25 0.75-1 2.25-0.75 0.25 0.75-2.25z"/>
	<path class="s32" d="m81 122l0.25 0.5-1 2-0.25 1-0.75 0.25 0.75-2.25 0.5-1.25z"/>
	<path class="s90" d="m224.25 110.75v0.75l-2 2.25h-0.5l0.5-1 1.25-1.25z"/>
	<path class="s23" d="m123.25 20.25h0.5l-0.25 1.75-1 1-0.25-0.5z"/>
	<path class="s35" d="m43 306.75l0.25 0.5-1 2.5-0.75-0.75 1.25-2z"/>
	<path class="s75" d="m52 283.25h0.5l-0.25 1.25-0.75 2h-0.5v-1.25l0.5-0.5z"/>
	<path class="s35" d="m15.25 277.75h0.5l-0.25 1.5-1.25 2-0.25-0.5z"/>
	<path class="s91" d="m184.5 234.75h2.75l0.5 0.75-0.5 0.25-2.75-0.5z"/>
	<path class="s92" d="m109.25 53.75h0.5l-0.25 1.25-0.75 1.75-0.75 0.25 0.5-1.5z"/>
	<path class="s93" d="m235.5 333l1.75 1.5 0.25 0.75-1.25-0.25-0.5-0.75v-0.5z"/>
	<path class="s42" d="m122.5 111l0.25 0.75-0.75 2h-0.5l0.25-2z"/>
	<path class="s1" d="m223.25 320l1.75 1.5 1.25 1.5-0.25 0.5-2.75-3z"/>
	<path class="s94" d="m214.5 309l1 0.5 1 1.75-0.25 0.75-1.75-2.5z"/>
	<path class="s10" d="m61.75 259.75l0.25 1-1 2.5-0.5-0.5 0.5-1.75z"/>
	<path class="s95" d="m25.75 253l0.5 0.25-1.25 3.25h-0.5l0.25-1.25z"/>
	<path class="s10" d="m116.75 125.5l0.25 0.75-0.75 1.75-0.5-0.25v-1.25z"/>
	<path class="s76" d="m232.25 101h0.5l-0.5 1-1.75 1.25 0.5-1z"/>
	<path class="s50" d="m216.25 121.5l0.25 0.5-1.5 2h-0.5l0.5-1.25z"/>
	<path class="s57" d="m221.75 113.75l0.25 0.5-0.5 1-1.5 0.75 0.5-1z"/>
	<path class="s2" d="m432.25 288l0.5 0.25-0.5 0.25z"/>
	<path class="s2" d="m432.5 287.5l0.5 0.25z"/>
	<path class="s2" d=""/>
	<path class="s2" d=""/>
	<path class="s2" d=""/>
	<path class="s2" d=""/>
</svg>